# Blender 4.1.1
# www.blender.org
mtllib onix.mtl
o BODY9
v 0.147332 -1.220820 0.000000
v 0.575199 -1.529198 0.000000
v 0.490215 -0.809731 0.000000
v 0.871431 -1.249479 0.000000
v 0.314557 -0.798352 0.000000
v 0.140554 -1.001660 0.000000
v 0.658900 -1.536490 0.000000
v 0.873198 -1.329518 0.000000
vn -0.0000 -0.0000 1.0000
vt 0.000000 0.000000
s 0
usemtl None
f 5/1/1 6/1/1 1/1/1 2/1/1 7/1/1 8/1/1 4/1/1 3/1/1
o BODY11
v 0.641597 -2.099753 0.000000
v 0.668515 -2.183403 0.000000
v 0.859307 -2.250817 0.000000
v 1.020845 -2.250817 0.000000
v 1.094618 -2.229194 0.000000
v 0.977599 -1.941733 0.000000
v 0.732112 -1.939189 0.000000
v 0.671297 -1.978761 0.000000
v 1.096598 -2.032399 0.000000
v 1.130523 -2.173670 0.000000
vn -0.0000 -0.0000 -1.0000
vt 0.000000 0.000000
s 0
usemtl None
f 10/2/2 9/2/2 16/2/2 15/2/2 14/2/2 17/2/2 18/2/2 13/2/2 12/2/2 11/2/2
o BODY3
v 0.679047 1.016161 -0.000000
v 0.988894 1.835195 -0.000000
v 0.538319 0.955413 -0.000000
v 0.977904 1.902354 -0.000000
v 0.659204 2.100168 -0.000000
v 0.514507 2.052546 -0.000000
v 0.414226 1.053307 -0.000000
v 0.438756 2.046819 -0.000000
vn -0.0000 -0.0000 1.0000
vt 0.000000 0.000000
s 0
usemtl None
f 24/3/3 26/3/3 25/3/3 21/3/3 19/3/3 20/3/3 22/3/3 23/3/3
o BODY5
v 1.401332 0.121886 -0.000000
v 1.939577 0.103570 -0.000000
v 1.120464 0.617480 -0.000000
v 1.901951 0.928854 -0.000000
v 1.076200 0.469426 -0.000000
v 1.225781 0.177895 -0.000000
v 1.969109 0.106157 -0.000000
v 2.149217 0.490795 -0.000000
v 2.150743 0.550322 -0.000000
v 2.060689 0.818958 -0.000000
v 1.961477 0.878485 -0.000000
vn -0.0000 -0.0000 1.0000
vt 0.000000 0.000000
s 0
usemtl None
f 31/4/4 32/4/4 27/4/4 28/4/4 33/4/4 34/4/4 35/4/4 36/4/4 37/4/4 30/4/4 29/4/4
o HEAD
v -2.147041 0.333827 -0.000000
v -2.078676 0.649063 -0.000000
v -1.831805 0.968097 -0.000000
v -1.691020 1.049176 -0.000000
v -0.586054 0.181906 -0.000000
v -0.586054 -0.007995 0.000000
v -0.768359 -0.140926 0.000000
v -0.893693 -0.319433 0.000000
v -0.927876 -0.353615 0.000000
v -1.007634 -0.566304 0.000000
v -1.269698 -0.756205 0.000000
v -1.341860 -0.820772 0.000000
v -1.493781 -0.809378 0.000000
v -1.679884 -0.816974 0.000000
v -1.767238 -0.699235 0.000000
v -1.831805 -0.691639 0.000000
v -2.033100 -0.486546 0.000000
v -2.109060 -0.410585 0.000000
v -2.162233 -0.292847 0.000000
v -2.112858 -0.038379 0.000000
v -2.166031 0.128734 -0.000000
v -2.097666 0.238876 -0.000000
v -2.093868 0.276857 -0.000000
v -0.567904 0.360362 -0.000000
v -1.354594 1.129139 -0.000000
vn -0.0000 -0.0000 -1.0000
vt 0.000000 0.000000
s 0
usemtl None
f 39/5/5 40/5/5 41/5/5 62/5/5 61/5/5 42/5/5 43/5/5 44/5/5 45/5/5 46/5/5 47/5/5 48/5/5 49/5/5 50/5/5 51/5/5 52/5/5 53/5/5 54/5/5 55/5/5 56/5/5 57/5/5 58/5/5 59/5/5 60/5/5 38/5/5
o BODY2
v 0.147454 0.897900 -0.000000
v 0.279329 0.968234 -0.000000
v 0.393621 1.023182 -0.000000
v 0.294714 2.254023 -0.000000
v -0.164653 2.258419 -0.000000
v -0.360269 2.126543 -0.000000
v -0.555884 2.045220 -0.000000
v -0.676121 1.793220 -0.000000
v 0.033733 0.922783 -0.000000
v 0.414226 1.053307 -0.000000
v 0.438756 2.046819 -0.000000
vn -0.0000 -0.0000 1.0000
vt 0.000000 0.000000
s 0
usemtl None
f 71/6/6 63/6/6 64/6/6 65/6/6 72/6/6 73/6/6 66/6/6 67/6/6 68/6/6 69/6/6 70/6/6
o BODY1
v -0.567904 0.360362 -0.000000
v -0.507969 0.350616 -0.000000
v -0.283780 0.419191 -0.000000
v -0.128166 0.646018 -0.000000
v 0.043272 0.825369 -0.000000
v -0.734795 1.793337 -0.000000
v -0.927333 1.806524 -0.000000
v -1.322961 1.566510 -0.000000
v -1.354594 1.129139 -0.000000
v -0.676121 1.793220 -0.000000
v 0.033733 0.922783 -0.000000
vn -0.0000 -0.0000 -1.0000
vt 0.000000 0.000000
s 0
usemtl None
f 75/7/7 74/7/7 82/7/7 81/7/7 80/7/7 79/7/7 83/7/7 84/7/7 78/7/7 77/7/7 76/7/7
o HORN
v -1.691020 1.049176 -0.000000
v -1.395771 1.219293 -0.000000
v -1.495996 2.187262 -0.000000
v -1.527647 2.213637 -0.000000
v -1.622597 2.174074 -0.000000
v -1.646335 2.131874 -0.000000
v -1.354594 1.129139 -0.000000
vn -0.0000 -0.0000 -1.0000
vt 0.000000 0.000000
s 0
usemtl None
f 90/8/8 89/8/8 88/8/8 87/8/8 86/8/8 91/8/8 85/8/8
o BODY13
v 1.249796 -2.215202 0.000000
v 1.270147 -2.180859 0.000000
v 1.341376 -2.117262 0.000000
v 1.336288 -1.978619 0.000000
v 1.244708 -1.930285 0.000000
v 1.141680 -1.955724 0.000000
v 1.096598 -2.032399 0.000000
v 1.130523 -2.173670 0.000000
vn -0.0000 -0.0000 -1.0000
vt 0.000000 0.000000
s 0
usemtl None
f 93/9/9 92/9/9 99/9/9 98/9/9 97/9/9 96/9/9 95/9/9 94/9/9
o BODY12
v 0.641597 -2.099753 0.000000
v 0.671297 -1.978761 0.000000
v 0.442109 -2.036806 0.000000
v 0.577796 -1.913418 0.000000
v 0.457371 -2.096911 0.000000
v 0.574390 -2.152877 0.000000
v 0.632900 -1.913750 0.000000
vn -0.0000 -0.0000 1.0000
vt 0.000000 0.000000
s 0
usemtl None
f 104/10/10 105/10/10 100/10/10 101/10/10 106/10/10 103/10/10 102/10/10
o BODY4
v 0.679047 1.016161 -0.000000
v 0.681184 0.885812 -0.000000
v 0.935777 0.647703 -0.000000
v 1.031021 0.640376 -0.000000
v 1.120464 0.617480 -0.000000
v 1.901951 0.928854 -0.000000
v 2.040236 1.138574 -0.000000
v 2.042068 1.180701 -0.000000
v 1.886381 1.708204 -0.000000
v 1.683073 1.807111 -0.000000
v 1.488922 1.938987 -0.000000
v 1.294772 1.949976 -0.000000
v 1.096958 1.849238 -0.000000
v 0.988894 1.835195 -0.000000
vn -0.0000 -0.0000 1.0000
vt 0.000000 0.000000
s 0
usemtl None
f 108/11/11 109/11/11 110/11/11 111/11/11 112/11/11 113/11/11 114/11/11 115/11/11 116/11/11 117/11/11 118/11/11 119/11/11 120/11/11 107/11/11
o BODY6
v 1.401332 0.121886 -0.000000
v 1.364068 0.080820 -0.000000
v 1.250508 0.002061 -0.000000
v 1.198433 -0.170593 0.000000
v 1.628482 -0.727597 0.000000
v 1.851276 -0.695782 0.000000
v 1.909887 -0.611528 0.000000
v 2.069237 -0.459504 0.000000
v 2.140670 -0.192090 0.000000
v 2.138838 -0.116994 0.000000
v 1.939577 0.103570 -0.000000
vn -0.0000 -0.0000 1.0000
vt 0.000000 0.000000
s 0
usemtl None
f 122/12/12 123/12/12 124/12/12 125/12/12 126/12/12 127/12/12 128/12/12 129/12/12 130/12/12 131/12/12 121/12/12
o BODY8
v 0.872111 -0.497968 0.000000
v 0.686373 -0.497968 0.000000
v 0.490391 -0.662813 0.000000
v 0.490215 -0.809731 0.000000
v 0.871431 -1.249479 0.000000
v 1.083832 -1.250759 0.000000
v 1.158928 -1.184821 0.000000
v 1.208443 -0.993190 0.000000
vn -0.0000 -0.0000 1.0000
vt 0.000000 0.000000
s 0
usemtl None
f 133/13/13 134/13/13 135/13/13 136/13/13 137/13/13 138/13/13 139/13/13 132/13/13
o BODY7
v 1.198433 -0.170593 0.000000
v 1.628482 -0.727597 0.000000
v 0.872111 -0.497968 0.000000
v 1.208443 -0.993190 0.000000
v 1.111306 -0.168279 0.000000
v 0.994083 -0.294660 0.000000
v 0.873197 -0.395398 0.000000
v 1.329268 -1.001660 0.000000
v 1.580198 -0.897259 0.000000
vn -0.0000 -0.0000 1.0000
vt 0.000000 0.000000
s 0
usemtl None
f 144/14/14 145/14/14 146/14/14 142/14/14 143/14/14 147/14/14 148/14/14 141/14/14 140/14/14
o BODY10
v 0.147332 -1.220820 0.000000
v -0.002311 -1.294718 0.000000
v -0.049933 -1.446741 0.000000
v -0.112207 -1.552974 0.000000
v -0.066417 -1.767272 0.000000
v 0.217533 -1.918736 0.000000
v 0.265767 -1.888028 0.000000
v 0.504238 -1.795469 0.000000
v 0.598456 -1.602428 0.000000
v 0.575199 -1.529198 0.000000
v 0.270395 -1.978620 0.000000
v 0.382327 -2.046033 0.000000
v 0.442109 -2.036806 0.000000
v 0.577796 -1.913418 0.000000
v 0.561672 -1.824714 0.000000
vn -0.0000 -0.0000 -1.0000
vt 0.000000 0.000000
s 0
usemtl None
f 150/15/15 149/15/15 158/15/15 157/15/15 156/15/15 163/15/15 162/15/15 161/15/15 160/15/15 159/15/15 155/15/15 154/15/15 153/15/15 152/15/15 151/15/15
